<svg width="30" height="36" viewBox="0 0 30 36" fill="none" xmlns="http://www.w3.org/2000/svg">
<path d="M29.4036 7.06108C29.3342 6.74833 29.2162 6.44843 29.0537 6.17233C29.0537 6.17233 25.151 0 14.9992 0C4.8505 0 0.944817 6.17233 0.944817 6.17233C0.801081 6.39885 0.643801 6.79844 0.594133 7.06108C0.594133 7.06108 -0.160664 11.0638 1.08855 16.8012C2.23919 22.0758 5.41942 29.6365 14.0541 35.6997C14.3309 35.8948 14.6613 35.9996 15 35.9996C15.3387 35.9996 15.6691 35.8948 15.9459 35.6997C24.5776 29.6358 27.7593 22.0758 28.9092 16.8012C30.1622 11.0638 29.4036 7.06108 29.4036 7.06108ZM25.5822 16.0758C25.5499 16.227 25.51 16.385 25.4723 16.5401H14.9992V32.1741C8.26251 27.0613 5.57896 20.9793 4.5254 16.5401H14.9992V3.40524C22.2274 3.40524 25.446 7.04453 26.0842 7.87382C26.1895 8.6384 26.5176 11.79 25.5822 16.0758Z" fill="#6276AA"/>
</svg>
