<svg width="36" height="34" viewBox="0 0 36 34" fill="none" xmlns="http://www.w3.org/2000/svg">
<path d="M12.0345 23.9276H15.678V24.23H12.0345V23.9276ZM28.0395 23.9276H36.0001V24.23H28.0395V23.9276ZM27.8446 12.8785C28.1761 13.3344 28.4439 13.7347 28.6571 14.0913C28.726 12.9452 28.9244 12.2457 29.1207 11.8438V15.0015C29.223 15.2605 29.2964 15.5328 29.3004 15.8194C29.3007 16.0228 29.2609 16.2095 29.1814 16.3774C29.164 16.415 29.1427 16.4512 29.1207 16.4869V22.3885C29.1207 22.6191 29.2123 22.8402 29.3753 23.0033C29.5384 23.1663 29.7595 23.2579 29.9901 23.2579C30.2206 23.2579 30.4418 23.1663 30.6048 23.0033C30.7678 22.8402 30.8594 22.6191 30.8594 22.3885V16.0418H31.1852V22.3885C31.1852 22.6191 31.2768 22.8402 31.4398 23.0032C31.6028 23.1662 31.8239 23.2578 32.0545 23.2578C32.285 23.2578 32.5061 23.1662 32.6691 23.0032C32.8321 22.8402 32.9237 22.6191 32.9237 22.3885V15.2883C30.9405 13.1585 29.5848 10.808 29.2571 10.2165C29.1947 10.2373 29.1291 10.2637 29.0609 10.2981C28.6828 10.4855 28.2751 10.8956 27.9898 11.6226C27.8698 11.9257 27.7665 12.2862 27.6864 12.7172C27.7465 12.7632 27.7997 12.8175 27.8446 12.8785ZM27.5091 15.3365L27.5105 15.3966L27.5426 15.4034C27.5316 15.381 27.5204 15.3587 27.5091 15.3365Z" fill="#45766A"/>
<path d="M30.4385 11.6932C31.046 12.6196 31.8962 13.7997 32.9236 14.9309V11.8455C32.9653 11.9309 33.0073 12.029 33.0488 12.1435C33.2469 12.6928 33.4136 13.5941 33.413 15.0005C33.413 15.3882 33.4006 15.8142 33.3732 16.2818C33.3687 16.3584 33.3799 16.435 33.4061 16.5071C33.4324 16.5792 33.4731 16.6451 33.5257 16.7009C33.5784 16.7567 33.6419 16.8011 33.7123 16.8314C33.7827 16.8617 33.8586 16.8773 33.9353 16.8772C34.0787 16.877 34.2166 16.8221 34.3209 16.7236C34.4252 16.6252 34.4879 16.4906 34.4963 16.3475C34.5231 15.899 34.537 15.4498 34.5379 15.0005C34.5351 12.8787 34.1963 11.7042 33.7339 10.998C33.5031 10.6477 33.2328 10.4227 32.9832 10.298C32.7339 10.1726 32.5148 10.1473 32.3903 10.1478L32.388 10.1479C32.3853 10.1478 32.383 10.147 32.3802 10.147H29.664C29.6608 10.147 29.6576 10.148 29.6545 10.148H29.6539C29.603 10.1482 29.5522 10.1519 29.5018 10.159C29.6579 10.4375 29.9781 10.9915 30.4385 11.6932Z" fill="#45766A"/>
<path d="M31.022 9.74626C31.8957 9.74626 32.6039 9.03803 32.6039 8.16439C32.6039 7.29075 31.8957 6.58252 31.022 6.58252C30.1484 6.58252 29.4402 7.29075 29.4402 8.16439C29.4402 9.03803 30.1484 9.74626 31.022 9.74626Z" fill="#45766A"/>
<path d="M4.76545 17.8765V32.0221C4.76545 32.8483 5.43523 33.5176 6.26094 33.5176C7.0869 33.5176 7.75669 32.8483 7.75669 32.0221V21.1023H8.31736V32.0221C8.31736 32.8483 8.98715 33.5176 9.81286 33.5176C10.6388 33.5176 11.3086 32.8483 11.3086 32.0221V13.8821C11.3893 14.0491 11.4612 14.2202 11.5239 14.3947C11.8648 15.3398 12.1516 16.8904 12.1506 19.3107C12.1506 19.9777 12.1291 20.7105 12.0824 21.5153C12.0512 22.0487 12.4585 22.5063 12.9922 22.5378C13.2484 22.5527 13.5001 22.4652 13.6918 22.2946C13.8835 22.124 13.9996 21.8842 14.0146 21.628C14.0635 20.7892 14.0862 20.0193 14.0862 19.3108C14.0813 15.6596 13.4982 13.6391 12.7031 12.424C12.3056 11.8208 11.8407 11.434 11.4113 11.2198C10.9951 11.01 10.6293 10.9637 10.4116 10.9615C10.3992 10.961 10.3866 10.9596 10.3738 10.9596H9.80597L9.50863 13.2844L8.32922 11.8631L9.14453 10.9596H6.92928L7.74459 11.8631L6.56517 13.2844L6.26784 10.9596H5.70027C5.6641 10.9596 5.62841 10.9621 5.59333 10.9662C5.16487 10.972 4.72468 10.9968 4.29828 11.0083C4.17755 11.0115 4.05731 11.0145 3.93973 11.0144C3.24902 11.0216 2.65036 10.9236 2.37238 10.7514C2.22855 10.666 2.15017 10.5878 2.07577 10.4533C2.00392 10.3178 1.93594 10.0979 1.93545 9.7245C1.93473 9.32132 2.02122 8.74855 2.24912 8.00195C2.32378 7.75641 2.29787 7.49127 2.17707 7.26483C2.05628 7.03839 1.85049 6.8692 1.60497 6.79447C1.59844 6.79241 1.59203 6.79145 1.5855 6.78963V4.26786C1.84981 3.84375 2.52419 3.08639 3.70228 3.78871C6.8942 5.69138 7.08932 1.24819 7.08932 1.24819C7.08932 1.24819 5.41588 2.17576 4.20622 1.08707C3.18237 0.165672 1.94235 0.688243 1.58538 0.87066V0.482239H1.1418V6.76991C0.968562 6.80288 0.807638 6.88258 0.676429 7.0004C0.545221 7.11822 0.448723 7.26967 0.397374 7.43837C0.132096 8.31283 0.000969233 9.0581 1.5072e-06 9.72426C-0.000482356 10.3344 0.115524 10.8884 0.366286 11.3608C0.741521 12.0793 1.40792 12.5099 2.0419 12.7068C2.68363 12.9117 3.3297 12.9475 3.93973 12.9496C3.97312 12.9496 4.00614 12.9488 4.03941 12.9486C4.28969 12.9464 4.53355 12.9386 4.76532 12.9294L4.76545 17.8765Z" fill="#45766A"/>
<path d="M8.48077 10.2336C9.77292 10.0216 10.7586 8.90048 10.7586 7.54857C10.7586 6.04521 9.54018 4.82684 8.03682 4.82684C6.5337 4.82684 5.31509 6.04521 5.31509 7.54857C5.31509 8.90048 6.30096 10.0216 7.59288 10.2336C7.73743 10.2574 7.88562 10.2703 8.03682 10.2703C8.18803 10.2703 8.33633 10.2575 8.48077 10.2336ZM22.223 16.1173C22.101 14.8997 21.8281 14.1248 21.4882 13.6051C21.2574 13.2548 20.9871 13.0298 20.7376 12.9053C20.4881 12.7796 20.2691 12.7546 20.1444 12.7551H20.1442C20.1409 12.7551 20.138 12.7541 20.1347 12.7541H19.6504C19.8713 13.6864 19.9292 14.5452 19.9292 15.1876C19.9292 15.5744 19.9084 15.8825 19.8898 16.082V17.3735H17.6634V16.0837C17.6363 15.7858 17.6231 15.4868 17.6237 15.1877C17.6237 14.5452 17.6817 13.6865 17.9027 12.7542H17.4184C17.4152 12.7542 17.412 12.7552 17.4089 12.7552H17.4083C17.2838 12.7547 17.0645 12.7795 16.8153 12.9054C16.437 13.0928 16.0295 13.5031 15.7442 14.2299C15.4554 14.9597 15.2615 16.0146 15.2605 17.6077C15.2608 18.0195 15.2737 18.4672 15.3026 18.9549C15.311 19.098 15.3738 19.2325 15.478 19.3309C15.5823 19.4293 15.7202 19.4842 15.8635 19.4844C15.8747 19.4844 15.8858 19.4839 15.8971 19.4834C16.046 19.4747 16.1853 19.4071 16.2844 19.2956C16.3835 19.1842 16.4343 19.0379 16.4256 18.889C16.3996 18.4624 16.3863 18.0351 16.3856 17.6077C16.3831 15.9048 16.6313 14.9497 16.8754 14.4508V24.9958C16.8754 25.2264 16.967 25.4475 17.13 25.6105C17.293 25.7735 17.5141 25.8651 17.7447 25.8651C17.9752 25.8651 18.1963 25.7735 18.3593 25.6105C18.5224 25.4475 18.6139 25.2264 18.6139 24.9958V18.6491H18.9397V24.9958C18.9397 25.2264 19.0313 25.4475 19.1943 25.6106C19.3574 25.7736 19.5785 25.8652 19.8091 25.8652C20.0397 25.8652 20.2608 25.7736 20.4238 25.6106C20.5869 25.4475 20.6785 25.2264 20.6785 24.9958V14.4532C20.7201 14.5385 20.7621 14.6364 20.8034 14.7506C21.0017 15.3002 21.1683 16.2012 21.1678 17.608C21.1678 17.9954 21.1552 18.4215 21.1281 18.8892C21.1162 19.0941 21.2166 19.278 21.3747 19.3857C21.431 18.3377 21.5879 17.4955 21.8512 16.8295C21.963 16.5435 22.0904 16.3096 22.223 16.1173Z" fill="#45766A"/>
<path d="M17.8344 15.1876C17.8344 15.5101 17.8493 15.7758 17.865 15.9674H19.688C19.7035 15.7758 19.7184 15.5101 19.7184 15.1876C19.7184 14.5464 19.6582 13.6844 19.4325 12.7541H18.1203C17.8946 13.6846 17.8344 14.5466 17.8344 15.1876Z" fill="#45766A"/>
<path d="M18.7765 12.3536C19.6502 12.3536 20.3584 11.6453 20.3584 10.7717C20.3584 9.89805 19.6502 9.18982 18.7765 9.18982C17.9029 9.18982 17.1947 9.89805 17.1947 10.7717C17.1947 11.6453 17.9029 12.3536 18.7765 12.3536Z" fill="#45766A"/>
<path d="M18.775 17.1039C18.9933 17.1039 19.1704 16.9269 19.1704 16.7085C19.1704 16.4901 18.9933 16.313 18.775 16.313C18.5566 16.313 18.3795 16.4901 18.3795 16.7085C18.3795 16.9269 18.5566 17.1039 18.775 17.1039Z" fill="#45766A"/>
<path d="M24.2881 12.6251H26.4501C26.1707 12.1773 25.6751 11.8783 25.1082 11.8783C24.2346 11.8783 23.5264 12.5864 23.5264 13.46C23.5264 14.3338 24.2346 15.042 25.1082 15.042C25.6971 15.042 26.2099 14.7195 26.4822 14.2421H24.288V12.6251H24.2881Z" fill="#45766A"/>
<path d="M25.6357 13.8671C25.8751 13.8671 26.0692 13.673 26.0692 13.4335C26.0692 13.1941 25.8751 13 25.6357 13C25.3962 13 25.2021 13.1941 25.2021 13.4335C25.2021 13.673 25.3962 13.8671 25.6357 13.8671Z" fill="#45766A"/>
<path d="M29.0585 15.8226C29.0535 15.4619 28.9287 15.1174 28.7053 14.673C28.4787 14.231 28.1392 13.6951 27.649 13.0208C27.6056 12.9611 27.5508 12.9105 27.4878 12.8719C27.4248 12.8333 27.3548 12.8075 27.2818 12.796C27.2088 12.7845 27.1343 12.7875 27.0625 12.8048C26.9907 12.8221 26.9229 12.8534 26.8632 12.8969C26.8035 12.9403 26.7529 12.9951 26.7144 13.0581C26.6758 13.1211 26.6501 13.191 26.6386 13.264C26.627 13.3369 26.63 13.4114 26.6473 13.4832C26.6646 13.555 26.6959 13.6227 26.7393 13.6824C27.2077 14.3259 27.519 14.8229 27.704 15.1853C27.8226 15.4121 27.8849 15.5881 27.9137 15.6987C27.7538 15.6944 27.497 15.6453 27.2486 15.5864C27.1147 15.5554 26.9812 15.5229 26.8515 15.4962C26.7424 15.4744 26.6398 15.4553 26.5219 15.4483C26.5035 15.4463 26.4854 15.4426 26.4666 15.4426H23.7503C23.7471 15.4426 23.7441 15.4435 23.7408 15.4435H23.7402C23.6154 15.4431 23.3965 15.4681 23.1471 15.5938C22.769 15.7814 22.3614 16.1915 22.076 16.9182C21.7874 17.648 21.5935 18.7032 21.5925 20.2961C21.5925 20.7081 21.6058 21.1555 21.6345 21.6433C21.6432 21.7922 21.7107 21.9315 21.8222 22.0306C21.9336 22.1297 22.0799 22.1805 22.2288 22.1718C22.3777 22.1631 22.517 22.0956 22.6161 21.9842C22.7153 21.8727 22.7661 21.7265 22.7574 21.5776C22.7316 21.1509 22.7183 20.7235 22.7175 20.2961C22.7151 18.5934 22.9634 17.6386 23.2071 17.1394V27.6842C23.2071 28.1645 23.5964 28.5534 24.0764 28.5534C24.5564 28.5534 24.9457 28.1645 24.9457 27.6842V21.3377H25.2714V27.6842C25.2714 27.9147 25.363 28.1358 25.526 28.2988C25.689 28.4619 25.9101 28.5534 26.1407 28.5534C26.2549 28.5535 26.3679 28.531 26.4734 28.4873C26.5789 28.4437 26.6748 28.3796 26.7555 28.2989C26.8362 28.2182 26.9003 28.1224 26.944 28.0169C26.9877 27.9114 27.0102 27.7984 27.0102 27.6842V16.6855C27.0766 16.7009 27.1447 16.7162 27.2155 16.7313C27.444 16.7789 27.6875 16.8228 27.9448 16.824C28.1606 16.821 28.406 16.799 28.6582 16.6312C28.7894 16.541 28.8945 16.4178 28.9628 16.274C29.032 16.1275 29.0587 15.9713 29.0585 15.8226Z" fill="#45766A"/>
</svg>
