<svg width="18" height="36" viewBox="0 0 18 36" fill="none" xmlns="http://www.w3.org/2000/svg">
<path d="M17.3006 9.44613L10.0547 4.83511V1.05469C10.0547 0.472219 9.58247 0 9 0C8.41753 0 7.94531 0.472219 7.94531 1.05469V4.83511L0.699399 9.44613C0.549711 9.54139 0.426473 9.67288 0.341091 9.82841C0.25571 9.98395 0.210944 10.1585 0.210938 10.3359V34.9453C0.210938 35.5278 0.683156 36 1.26562 36H16.7344C17.3168 36 17.7891 35.5278 17.7891 34.9453V10.3359C17.7891 9.97538 17.6048 9.63977 17.3006 9.44613ZM9 17.2969C7.06148 17.2969 5.48438 15.7198 5.48438 13.7812C5.48438 12.21 6.5205 10.8765 7.94531 10.4275V11.3203C7.94531 11.9028 8.41753 12.375 9 12.375C9.58247 12.375 10.0547 11.9028 10.0547 11.3203V10.4275C11.4795 10.8765 12.5156 12.21 12.5156 13.7812C12.5156 15.7198 10.9385 17.2969 9 17.2969Z" fill="#F2BE22"/>
</svg>
